<svg xmlns="http://www.w3.org/2000/svg" viewBox="0 0 880 250" width="880" height="250" role="img" aria-label="値の型の一覧" font-family="Segoe UI, Yu Gothic UI, Meiryo, sans-serif">
<defs>
<linearGradient id="i1" x1="0" y1="1" x2="0" y2="0"><stop offset="0" stop-color="hsl(210,78%,25%)"/><stop offset="1" stop-color="hsl(210,58%,55%)"/></linearGradient>
<linearGradient id="i2" x1="0" y1="1" x2="0" y2="0"><stop offset="0" stop-color="hsl(280,78%,25%)"/><stop offset="1" stop-color="hsl(280,58%,55%)"/></linearGradient>
<linearGradient id="i3" x1="0" y1="1" x2="0" y2="0"><stop offset="0" stop-color="hsl(240,78%,25%)"/><stop offset="1" stop-color="hsl(240,58%,55%)"/></linearGradient>
<linearGradient id="i4" x1="0" y1="1" x2="0" y2="0"><stop offset="0" stop-color="hsl(200,78%,25%)"/><stop offset="1" stop-color="hsl(200,58%,55%)"/></linearGradient>
<linearGradient id="i5" x1="0" y1="1" x2="0" y2="0"><stop offset="0" stop-color="hsl(160,78%,25%)"/><stop offset="1" stop-color="hsl(160,58%,55%)"/></linearGradient>
<linearGradient id="i6" x1="0" y1="1" x2="0" y2="0"><stop offset="0" stop-color="hsl(120,78%,25%)"/><stop offset="1" stop-color="hsl(120,58%,55%)"/></linearGradient>
<linearGradient id="i7" x1="0" y1="1" x2="0" y2="0"><stop offset="0" stop-color="hsl(80,78%,25%)"/><stop offset="1" stop-color="hsl(80,58%,55%)"/></linearGradient>
<linearGradient id="i8" x1="0" y1="1" x2="0" y2="0"><stop offset="0" stop-color="hsl(40,78%,25%)"/><stop offset="1" stop-color="hsl(40,58%,55%)"/></linearGradient>
<linearGradient id="i9" x1="0" y1="1" x2="0" y2="0"><stop offset="0" stop-color="hsl(0,78%,25%)"/><stop offset="1" stop-color="hsl(0,58%,55%)"/></linearGradient>
</defs>
	<rect width="100%" height="100%" fill="#ffffff"/>
<rect x="10" y="10" width="600" height="230" rx="14" fill="#eef1f7" stroke="#c9d1dc"/>
<text x="310" y="38" fill="#1c2330" font-size="17" font-weight="700" text-anchor="middle">プリミティブ（それ以上分けられない値）</text>
<rect x="30" y="56" width="135" height="76" rx="10" fill="url(#i2)"/><text x="97" y="88" fill="#fff" font-size="17" font-weight="700" text-anchor="middle">number</text><text x="97" y="114" fill="#fff" font-size="14" text-anchor="middle">120 ・ 3.14</text>
<rect x="175" y="56" width="135" height="76" rx="10" fill="url(#i3)"/><text x="242" y="88" fill="#fff" font-size="17" font-weight="700" text-anchor="middle">string</text><text x="242" y="114" fill="#fff" font-size="14" text-anchor="middle">"りんご"</text>
<rect x="320" y="56" width="135" height="76" rx="10" fill="url(#i4)"/><text x="387" y="88" fill="#fff" font-size="17" font-weight="700" text-anchor="middle">boolean</text><text x="387" y="114" fill="#fff" font-size="14" text-anchor="middle">true ・ false</text>
<rect x="465" y="56" width="125" height="76" rx="10" fill="url(#i5)"/><text x="527" y="88" fill="#fff" font-size="17" font-weight="700" text-anchor="middle">undefined</text><text x="527" y="114" fill="#fff" font-size="14" text-anchor="middle">未設定</text>
<rect x="30" y="146" width="135" height="76" rx="10" fill="url(#i6)"/><text x="97" y="178" fill="#fff" font-size="17" font-weight="700" text-anchor="middle">null</text><text x="97" y="204" fill="#fff" font-size="14" text-anchor="middle">わざと空</text>
<rect x="175" y="146" width="135" height="76" rx="10" fill="url(#i7)"/><text x="242" y="178" fill="#fff" font-size="17" font-weight="700" text-anchor="middle">bigint</text><text x="242" y="204" fill="#fff" font-size="14" text-anchor="middle">10n（巨大な整数）</text>
<rect x="320" y="146" width="135" height="76" rx="10" fill="url(#i8)"/><text x="387" y="178" fill="#fff" font-size="17" font-weight="700" text-anchor="middle">symbol</text><text x="387" y="204" fill="#fff" font-size="14" text-anchor="middle">一意な目印</text>
<rect x="630" y="10" width="240" height="230" rx="14" fill="url(#i9)"/>
<text x="750" y="44" fill="#fff" font-size="18" font-weight="700" text-anchor="middle">オブジェクト</text>
<text x="750" y="80" fill="#fff" font-size="15" text-anchor="middle">{ name: "りんご" }</text>
<text x="750" y="110" fill="#fff" font-size="15" text-anchor="middle">配列 [1, 2, 3]</text>
<text x="750" y="140" fill="#fff" font-size="15" text-anchor="middle">関数 ・ クラス</text>
<text x="750" y="170" fill="#fff" font-size="15" text-anchor="middle">Date ・ Map ・ Set …</text>
<text x="750" y="212" fill="#fff" font-size="13" text-anchor="middle">05 章 ・ 06 章 ・ 08 章で扱う</text>
</svg>
