<svg xmlns="http://www.w3.org/2000/svg" viewBox="0 0 880 200" width="880" height="200" role="img" aria-label="この章で紹介するもの" font-family="Segoe UI, Yu Gothic UI, Meiryo, sans-serif">
<defs>
<linearGradient id="i1" x1="0" y1="1" x2="0" y2="0"><stop offset="0" stop-color="hsl(280,78%,25%)"/><stop offset="1" stop-color="hsl(280,58%,55%)"/></linearGradient>
<linearGradient id="i2" x1="0" y1="1" x2="0" y2="0"><stop offset="0" stop-color="hsl(230,78%,25%)"/><stop offset="1" stop-color="hsl(230,58%,55%)"/></linearGradient>
<linearGradient id="i3" x1="0" y1="1" x2="0" y2="0"><stop offset="0" stop-color="hsl(180,78%,25%)"/><stop offset="1" stop-color="hsl(180,58%,55%)"/></linearGradient>
<linearGradient id="i4" x1="0" y1="1" x2="0" y2="0"><stop offset="0" stop-color="hsl(120,78%,25%)"/><stop offset="1" stop-color="hsl(120,58%,55%)"/></linearGradient>
<linearGradient id="i5" x1="0" y1="1" x2="0" y2="0"><stop offset="0" stop-color="hsl(60,78%,25%)"/><stop offset="1" stop-color="hsl(60,58%,55%)"/></linearGradient>
<linearGradient id="i6" x1="0" y1="1" x2="0" y2="0"><stop offset="0" stop-color="hsl(25,78%,25%)"/><stop offset="1" stop-color="hsl(25,58%,55%)"/></linearGradient>
<linearGradient id="i7" x1="0" y1="1" x2="0" y2="0"><stop offset="0" stop-color="hsl(345,78%,25%)"/><stop offset="1" stop-color="hsl(345,58%,55%)"/></linearGradient>
</defs>
	<rect width="100%" height="100%" fill="#ffffff"/>
<rect x="10" y="20" width="115" height="70" rx="12" fill="url(#i1)"/><text x="67" y="62" fill="#fff" font-size="16" font-weight="700" text-anchor="middle">Canvas</text>
<rect x="135" y="20" width="115" height="70" rx="12" fill="url(#i2)"/><text x="192" y="62" fill="#fff" font-size="16" font-weight="700" text-anchor="middle">SVG</text>
<rect x="260" y="20" width="115" height="70" rx="12" fill="url(#i3)"/><text x="317" y="62" fill="#fff" font-size="16" font-weight="700" text-anchor="middle">3D</text>
<rect x="385" y="20" width="115" height="70" rx="12" fill="url(#i4)"/><text x="442" y="62" fill="#fff" font-size="16" font-weight="700" text-anchor="middle">動画</text>
<rect x="510" y="20" width="115" height="70" rx="12" fill="url(#i5)"/><text x="567" y="62" fill="#fff" font-size="16" font-weight="700" text-anchor="middle">カメラ</text>
<rect x="635" y="20" width="115" height="70" rx="12" fill="url(#i6)"/><text x="692" y="62" fill="#fff" font-size="16" font-weight="700" text-anchor="middle">音声合成</text>
<rect x="760" y="20" width="115" height="70" rx="12" fill="url(#i7)"/><text x="817" y="62" fill="#fff" font-size="16" font-weight="700" text-anchor="middle">音の生成</text>
<text x="192" y="130" fill="#1c2330" font-size="15" font-weight="700" text-anchor="middle">描く</text>
<line x1="10" y1="110" x2="375" y2="110" stroke="#9aa6b8" stroke-width="3"/>
<text x="630" y="130" fill="#1c2330" font-size="15" font-weight="700" text-anchor="middle">映す ・ 聞く ・ 鳴らす</text>
<line x1="385" y1="110" x2="875" y2="110" stroke="#9aa6b8" stroke-width="3"/>
<text x="440" y="175" fill="#4a5568" font-size="14" text-anchor="middle">どれもプラグインなしで、ブラウザだけで動く</text>
</svg>
